#!OML:ASF H:\Terrain\Patient Classification 1\Animal2\Wednesday\Animal2.ASF
:FULLY-SPECIFIED
:DEGREES
2075
root 10.0399 14.9047 -15.925 19.4089 1.45032 -8.35595
lowerback 21.0921 -4.06954 -6.19893
upperback -3.14702 -7.32151 -1.58425
thorax -14.9409 -2.85541 4.1025
lowerneck -1.84542 -2.47586 9.86311
upperneck -3.73615 -3.58084 -5.87637
head -1.19201 -1.87978 -3.65467
rclavicle 3.97569e-015 4.77083e-014
rhumerus -35.7472 -30.309 12.9847
rradius 26.7913
rwrist 15.3429
rhand 27.3185 30.6568
rfingers 7.12502
rthumb 51.2808 10.1335
lclavicle 3.97569e-015 4.77083e-014
lhumerus -10.2181 2.12702 -20.5047
lradius 33.4781
lwrist 24.0626
lhand -3.84443 20.7253
lfingers 7.12502
lthumb 21.9033 49.5055
rfemur -46.4895 -4.82665 12.0614
rtibia 89.7008
rfoot -7.30448 -3.31706
rtoes -3.30715
lfemur -69.8201 5.43025 -7.43666
ltibia 81.0612
lfoot -29.0002 1.56438
ltoes -22.1406
2076
root 10.0321 14.872 -15.9705 19.2993 0.965143 -8.45867
lowerback 21.098 -4.00729 -6.13256
upperback -3.25004 -7.22051 -1.51276
thorax -15.0763 -2.80231 4.12192
lowerneck -2.01709 -2.47021 9.73775
upperneck -3.41448 -3.58455 -6.04149
head -1.05761 -1.87588 -3.69142
rclavicle -2.38542e-015 2.54444e-014
rhumerus -35.003 -30.0861 13.672
rradius 26.7866
rwrist 14.9117
rhand 27.4975 30.5215
rfingers 7.12502
rthumb 51.4437 10.0911
lclavicle -2.38542e-015 2.54444e-014
lhumerus -9.80047 3.12045 -21.4285
lradius 33.092
lwrist 23.6565
lhand -3.58121 20.3615
lfingers 7.12502
lthumb 22.1561 49.1118
rfemur -45.8712 -4.2091 11.9461
rtibia 89.669
rfoot -6.79756 -3.15661
rtoes -4.73352
lfemur -69.9025 5.65514 -7.27643
ltibia 81.2684
lfoot -28.9105 1.82364
ltoes -22.0823
2077
root 10.0307 14.867 -16.0161 19.2631 0.579652 -8.48897
lowerback 21.0405 -3.9956 -6.04914
upperback -3.34992 -7.1746 -1.42694
thorax -15.1645 -2.77811 4.15897
lowerneck -2.09848 -2.43761 9.76193
upperneck -3.26001 -3.55225 -6.33934
head -0.997621 -1.857 -3.80351
rclavicle 7.71285e-014 -3.49861e-014
rhumerus -34.3251 -29.7812 14.3713
rradius 26.8986
rwrist 14.3951
rhand 27.5457 30.5581
rfingers 7.12502
rthumb 51.4875 10.1529
lclavicle 7.71285e-014 -3.49861e-014
lhumerus -9.64411 3.81592 -22.2893
lradius 32.9603
lwrist 23.7248
lhand -3.5815 20.2272
lfingers 7.12502
lthumb 22.1558 48.9776
rfemur -45.2281 -3.99932 11.8126
rtibia 89.4207
rfoot -6.40423 -2.91145
rtoes -5.48628
lfemur -69.9194 5.66968 -7.15258
ltibia 81.3303
lfoot -28.904 2.13356
ltoes -22.7924
2078
root 10.0306 14.8611 -16.0608 19.4203 0.191703 -8.25528
lowerback 20.7651 -4.00222 -6.12895
upperback -3.53588 -7.19846 -1.42142
thorax -15.212 -2.77858 4.20032
lowerneck -1.62033 -2.43173 9.61086
upperneck -3.54377 -3.50774 -6.39859
head -1.16977 -1.82905 -3.78822
rclavicle 1.04958e-013 3.49861e-014
rhumerus -33.8001 -28.9718 14.9363
rradius 27.4371
rwrist 13.4786
rhand 27.6713 30.0526
rfingers 7.12502
rthumb 51.6017 9.71328
lclavicle 1.04958e-013 3.49861e-014
lhumerus -9.76458 4.30705 -23.0302
lradius 33.2409
lwrist 24.1611
lhand -4.21946 20.7521
lfingers 7.12502
lthumb 21.5432 49.5739
rfemur -44.7546 -3.83819 11.302
rtibia 89.262
rfoot -6.22888 -2.43282
rtoes -4.62595
lfemur -70.1517 5.62801 -7.34971
ltibia 81.3783
lfoot -28.9126 2.40201
ltoes -22.9913
2079
root 10.0272 14.8401 -16.1114 19.524 -0.242902 -7.98625
lowerback 20.6325 -3.99392 -6.26835
upperback -3.76719 -7.23491 -1.42531
thorax -15.3936 -2.76982 4.28406
lowerneck -1.16871 -2.39004 9.36919
upperneck -3.68391 -3.41234 -6.36758
head -1.28158 -1.77305 -3.72544
rclavicle -2.70347e-014 -6.36111e-015
rhumerus -33.223 -28.7493 15.7336
rradius 27.6728
rwrist 13.34
rhand 28.1077 29.9629
rfingers 7.12502
rthumb 51.9979 9.85596
lclavicle -2.70347e-014 -6.36111e-015
lhumerus -9.84346 4.61842 -23.7672
lradius 33.4814
lwrist 24.4305
lhand -4.32086 21.1354
lfingers 7.12502
lthumb 21.4458 49.9684
rfemur -44.365 -3.68247 10.752
rtibia 89.1841
rfoot -5.89572 -2.02083
rtoes -5.55119
lfemur -70.4204 5.69844 -7.63873
ltibia 81.487
lfoot -28.8469 2.79883
ltoes -23.4578
2080
root 10.021 14.8037 -16.1716 19.4249 -0.678558 -7.96576
lowerback 20.702 -3.97856 -6.23803
upperback -3.84616 -7.21207 -1.37648
thorax -15.5305 -2.74949 4.32711
lowerneck -1.21625 -2.31214 9.42064
upperneck -3.61054 -3.31557 -6.54742
head -1.24606 -1.72351 -3.8013
rclavicle -3.97569e-015 1.59028e-014
rhumerus -32.5258 -29.6203 16.6484
rradius 27.4824
rwrist 14.0734
rhand 28.378 29.6414
rfingers 7.12502
rthumb 52.243 9.68121
lclavicle -3.97569e-015 1.59028e-014
lhumerus -9.7596 5.00186 -24.5707
lradius 33.3537
lwrist 24.6085
lhand -4.21197 20.7801
lfingers 7.12502
lthumb 21.5504 49.6011
rfemur -43.8307 -3.35699 10.4242
rtibia 89.1339
rfoot -5.83539 -1.50361
rtoes -4.29422
lfemur -70.5896 5.91464 -7.65993
ltibia 81.7148
lfoot -28.7475 3.23652
ltoes -24.7601
2081
root 10.0112 14.7697 -16.2365 19.3367 -1.08839 -8.07206
lowerback 20.7856 -3.94723 -6.14829
upperback -3.87221 -7.13522 -1.2427
thorax -15.6115 -2.70901 4.41572
lowerneck -1.31728 -2.28598 9.50827
upperneck -3.65625 -3.30076 -6.83712
head -1.25049 -1.71702 -3.92302
rclavicle 1.59028e-015 1.27222e-014
rhumerus -31.7482 -30.7086 17.509
rradius 27.3251
rwrist 14.935
rhand 28.5688 28.5846
rfingers 7.12502
rthumb 52.4158 8.72915
lclavicle 1.59028e-015 1.27222e-014
lhumerus -9.6658 5.6962 -25.2624
lradius 33.0678
lwrist 24.7478
lhand -4.42604 20.6052
lfingers 7.12502
lthumb 21.3448 49.4496
rfemur -43.3375 -3.02468 10.295
rtibia 89.0522
rfoot -6.12703 -1.00788
rtoes -3.9802
lfemur -70.7827 6.13101 -7.487
ltibia 81.9477
lfoot -28.6373 3.49872
ltoes -25.4125
2082
root 10.0014 14.7476 -16.298 19.3004 -1.54675 -7.94482
lowerback 20.88 -3.90053 -6.27391
upperback -3.9843 -7.10941 -1.14813
thorax -15.78 -2.66693 4.60069
lowerneck -1.06602 -2.27809 9.45127
upperneck -3.92016 -3.28585 -7.09824
head -1.38605 -1.7051 -4.00263
rclavicle 2.3059e-014 -3.18055e-014
rhumerus -30.9832 -31.1246 18.2725
rradius 27.3058
rwrist 15.2592
rhand 28.7059 28.6433
rfingers 7.12502
rthumb 52.5398 8.86384
lclavicle 2.3059e-014 -3.18055e-014
lhumerus -9.61391 6.33141 -25.9099
lradius 32.7946
lwrist 24.6782
lhand -4.30535 20.6698
lfingers 7.12502
lthumb 21.4607 49.5011
rfemur -42.957 -2.76137 9.97473
rtibia 88.8811
rfoot -6.14491 -0.830756
rtoes -6.54216
lfemur -70.9358 6.21538 -7.55391
ltibia 82.1038
lfoot -28.5754 3.68974
ltoes -25.3269
2083
root 9.99427 14.7317 -16.358 19.3075 -1.9678 -7.67296
lowerback 20.9439 -3.90982 -6.34786
upperback -4.10821 -7.16482 -1.18984
thorax -15.9626 -2.67381 4.62488
lowerneck -1.09249 -2.19585 9.57937
upperneck -3.86227 -3.1867 -7.41874
head -1.36368 -1.65407 -4.14512
rclavicle 3.18055e-014 3.18055e-015
rhumerus -30.4486 -31.1088 18.8884
rradius 27.5007
rwrist 15.1747
rhand 28.7178 29.3589
rfingers 7.12502
rthumb 52.5506 9.58609
lclavicle 3.18055e-014 3.18055e-015
lhumerus -9.4663 6.6958 -26.6685
lradius 32.6073
lwrist 24.629
lhand -4.33749 20.8574
lfingers 7.12502
lthumb 21.4298 49.6922
rfemur -42.634 -2.55658 9.48386
rtibia 88.6266
rfoot -5.90515 -0.495227
rtoes -6.38266
lfemur -71.1152 6.17713 -7.77527
ltibia 82.1807
lfoot -28.5302 4.03335
ltoes -25.3137
2084
root 9.98722 14.7147 -16.4209 19.3563 -2.35204 -7.4388
lowerback 20.9796 -3.94618 -6.30793
upperback -4.20913 -7.22254 -1.2365
thorax -16.1142 -2.69549 4.57717
lowerneck -1.40957 -2.05572 9.65025
upperneck -3.53893 -3.02145 -7.64265
head -1.19062 -1.5729 -4.2454
rclavicle -4.53229e-014 1.27222e-014
rhumerus -29.8605 -31.3271 19.4169
rradius 27.7144
rwrist 15.2119
rhand 28.9831 29.6458
rfingers 7.12502
rthumb 52.7904 10.0216
lclavicle -4.53229e-014 1.27222e-014
lhumerus -9.42581 6.99261 -27.3982
lradius 32.6495
lwrist 24.6983
lhand -5.07394 21.4976
lfingers 7.12502
lthumb 20.7224 50.4112
rfemur -42.3736 -2.51479 9.04221
rtibia 88.3487
rfoot -5.99936 0.0128302
rtoes -5.90037
lfemur -71.3726 6.15435 -7.95909
ltibia 82.2375
lfoot -28.3728 4.40313
ltoes -25.2007
2085
root 9.98002 14.6935 -16.4805 19.3479 -2.9994 -7.18828
lowerback 20.9986 -3.86048 -6.44663
upperback -4.35855 -7.1629 -1.24899
thorax -16.3029 -2.64213 4.63105
lowerneck -1.05365 -1.98481 9.35527
upperneck -3.72732 -2.89974 -7.57838
head -1.29732 -1.50373 -4.16134
rclavicle -5.32743e-014 -2.8625e-014
rhumerus -29.0501 -31.4652 19.961
rradius 27.7708
rwrist 15.2015
rhand 29.3223 29.6848
rfingers 7.12502
rthumb 53.0967 10.2538
lclavicle -5.32743e-014 -2.8625e-014
lhumerus -9.61744 7.28487 -27.9858
lradius 32.8334
lwrist 24.7654
lhand -5.4597 21.7535
lfingers 7.12502
lthumb 20.3517 50.7071
rfemur -42.1334 -2.40586 8.4826
rtibia 88.081
rfoot -6.49914 0.40218
rtoes -6.31928
lfemur -71.4901 6.33897 -8.23128
ltibia 82.3348
lfoot -28.2487 4.6912
ltoes -24.7595
2086
root 9.97111 14.6633 -16.5478 19.2691 -3.70992 -6.9505
lowerback 21.1171 -3.75433 -6.57942
upperback -4.52383 -7.08992 -1.29346
thorax -16.5808 -2.5786 4.65093
lowerneck -0.418668 -1.9492 9.19951
upperneck -4.13706 -2.81566 -7.59308
head -1.53648 -1.4511 -4.13294
rclavicle 1.59028e-014 -3.18055e-015
rhumerus -28.2977 -31.5418 20.5505
rradius 27.6381
rwrist 15.3767
rhand 29.2838 30.1645
rfingers 7.12502
rthumb 53.0619 10.7114
lclavicle 1.59028e-014 -3.18055e-015
lhumerus -9.6736 7.60711 -28.5721
lradius 32.8067
lwrist 24.6605
lhand -4.76243 21.3325
lfingers 7.12502
lthumb 21.0217 50.2131
rfemur -41.9807 -2.2371 7.94184
rtibia 87.8527
rfoot -6.99787 0.834547
rtoes -6.5589
lfemur -71.5909 6.58864 -8.47649
ltibia 82.4882
lfoot -28.1612 4.82305
ltoes -24.4015
